<svg xmlns="http://www.w3.org/2000/svg" xmlns:xlink="http://www.w3.org/1999/xlink" width="200" zoomAndPan="magnify" viewBox="0 0 150 149.999998" height="200" preserveAspectRatio="xMidYMid meet" version="1.0"><defs><g/><clipPath id="d600cd8581"><path d="M 37.226562 79 L 51 79 L 51 101.230469 L 37.226562 101.230469 Z M 37.226562 79 " clip-rule="nonzero"/></clipPath><clipPath id="733355eeee"><path d="M 57 76 L 72 76 L 72 101.230469 L 57 101.230469 Z M 57 76 " clip-rule="nonzero"/></clipPath><clipPath id="7160af57c8"><path d="M 78 69 L 93 69 L 93 101.230469 L 78 101.230469 Z M 78 69 " clip-rule="nonzero"/></clipPath><clipPath id="19e126758f"><path d="M 99 56 L 112.976562 56 L 112.976562 101.230469 L 99 101.230469 Z M 99 56 " clip-rule="nonzero"/></clipPath><clipPath id="59e95667c2"><path d="M 37.226562 21.730469 L 112.976562 21.730469 L 112.976562 73 L 37.226562 73 Z M 37.226562 21.730469 " clip-rule="nonzero"/></clipPath><clipPath id="9884b9f2d0"><path d="M 37.226562 12.785156 L 79 12.785156 L 79 56.285156 L 37.226562 56.285156 Z M 37.226562 12.785156 " clip-rule="nonzero"/></clipPath></defs><rect x="-15" width="180" fill="#ffffff" y="-15" height="179.999997" fill-opacity="1"/><rect x="-15" width="180" fill="#ffffff" y="-15" height="179.999997" fill-opacity="1"/><g clip-path="url(#d600cd8581)"><path fill="#38b6ff" d="M 37.230469 79.59375 L 50.539062 79.59375 L 50.539062 101.324219 L 37.230469 101.324219 Z M 37.230469 79.59375 " fill-opacity="1" fill-rule="nonzero"/></g><g clip-path="url(#733355eeee)"><path fill="#38b6ff" d="M 57.875 101.324219 L 57.875 76.605469 L 71.296875 76.605469 L 71.296875 101.324219 Z M 57.875 101.324219 " fill-opacity="1" fill-rule="nonzero"/></g><g clip-path="url(#7160af57c8)"><path fill="#38b6ff" d="M 78.519531 69.269531 L 92.375 69.269531 L 92.375 101.324219 L 78.519531 101.324219 Z M 78.519531 69.269531 " fill-opacity="1" fill-rule="nonzero"/></g><g clip-path="url(#19e126758f)"><path fill="#38b6ff" d="M 99.707031 56.503906 L 112.75 56.503906 L 112.75 101.324219 L 99.707031 101.324219 Z M 99.707031 56.503906 " fill-opacity="1" fill-rule="nonzero"/></g><g clip-path="url(#59e95667c2)"><path fill="#38b6ff" d="M 37.230469 72.144531 C 37.230469 72.144531 72.542969 67.378906 96.722656 35.3125 L 88.84375 30.152344 L 112.753906 21.730469 L 112.753906 46.9375 L 106.234375 41.289062 C 106.234375 41.289062 76.617188 74.746094 37.230469 72.144531 Z M 37.230469 72.144531 " fill-opacity="1" fill-rule="nonzero"/></g><g clip-path="url(#9884b9f2d0)"><path fill="#38b6ff" d="M 37.296875 43.109375 C 37.296875 41.066406 37.296875 39.019531 37.296875 36.972656 C 37.296875 36.820312 37.289062 36.664062 37.273438 36.511719 C 37.234375 36.148438 37.367188 35.890625 37.707031 35.730469 C 40.921875 34.207031 44.132812 32.679688 47.347656 31.15625 C 47.636719 31.019531 47.75 30.867188 47.75 30.527344 C 47.734375 26.421875 47.738281 22.320312 47.734375 18.214844 C 47.734375 17.863281 47.855469 17.625 48.167969 17.476562 C 51.261719 15.992188 54.359375 14.511719 57.445312 13.011719 C 57.878906 12.800781 58.234375 12.785156 58.675781 12.984375 C 62.007812 14.488281 65.347656 15.96875 68.6875 17.457031 C 69.042969 17.613281 69.164062 17.863281 69.164062 18.253906 C 69.152344 22.332031 69.160156 26.40625 69.144531 30.484375 C 69.144531 30.84375 69.253906 31.023438 69.578125 31.1875 C 72.535156 32.691406 75.484375 34.214844 78.425781 35.753906 C 78.632812 35.863281 78.839844 36.183594 78.84375 36.410156 C 78.875 37.449219 78.828125 38.492188 78.824219 39.535156 C 78.820312 42.808594 78.816406 46.082031 78.832031 49.351562 C 78.835938 49.808594 78.664062 50.074219 78.285156 50.300781 C 75.136719 52.195312 72.003906 54.117188 68.847656 56 C 68.644531 56.121094 68.25 56.109375 68.039062 55.988281 C 64.796875 54.171875 61.574219 52.324219 58.335938 50.5 C 58.203125 50.421875 57.945312 50.433594 57.8125 50.511719 C 54.796875 52.324219 51.785156 54.148438 48.78125 55.980469 C 48.484375 56.160156 48.210938 56.191406 47.914062 56.023438 C 44.550781 54.105469 41.1875 52.195312 37.820312 50.28125 C 37.441406 50.066406 37.289062 49.804688 37.289062 49.371094 C 37.304688 47.285156 37.296875 45.199219 37.296875 43.109375 Z M 67.886719 19.128906 C 67.773438 19.175781 67.722656 19.191406 67.675781 19.214844 C 64.78125 20.5625 61.886719 21.910156 58.988281 23.257812 C 58.738281 23.371094 58.71875 23.53125 58.71875 23.753906 C 58.726562 27.4375 58.726562 31.117188 58.726562 34.800781 L 58.726562 35.28125 C 58.851562 35.234375 58.917969 35.210938 58.980469 35.183594 C 61.859375 33.808594 64.738281 32.4375 67.617188 31.070312 C 67.863281 30.953125 67.886719 30.796875 67.886719 30.574219 C 67.882812 28.414062 67.882812 26.253906 67.886719 24.097656 C 67.886719 22.460938 67.886719 20.824219 67.886719 19.128906 Z M 63.902344 40.339844 C 63.902344 41.21875 63.902344 42.011719 63.902344 42.800781 C 63.902344 43.34375 63.65625 43.667969 63.25 43.660156 C 62.847656 43.652344 62.632812 43.363281 62.628906 42.824219 C 62.628906 41.878906 62.617188 40.933594 62.636719 39.992188 C 62.640625 39.710938 62.546875 39.558594 62.300781 39.433594 C 61.691406 39.117188 61.09375 38.769531 60.488281 38.433594 C 59.929688 38.121094 59.367188 37.8125 58.765625 37.480469 C 58.753906 37.589844 58.742188 37.640625 58.742188 37.691406 C 58.742188 41.460938 58.738281 45.226562 58.753906 48.992188 C 58.753906 49.136719 58.910156 49.339844 59.050781 49.417969 C 61.492188 50.820312 63.941406 52.210938 66.394531 53.597656 C 66.84375 53.851562 67.292969 54.101562 67.800781 54.386719 L 67.800781 53.875 C 67.800781 50.40625 67.777344 46.933594 67.824219 43.464844 C 67.832031 42.730469 67.632812 42.328125 66.964844 42.011719 C 65.941406 41.527344 64.96875 40.929688 63.902344 40.339844 Z M 38.609375 37.476562 C 38.597656 37.609375 38.582031 37.6875 38.582031 37.765625 C 38.582031 41.492188 38.585938 45.214844 38.574219 48.941406 C 38.574219 49.203125 38.695312 49.308594 38.890625 49.417969 C 41.707031 51.011719 44.527344 52.605469 47.34375 54.203125 C 47.433594 54.253906 47.535156 54.296875 47.640625 54.347656 C 47.652344 54.269531 47.664062 54.226562 47.664062 54.183594 C 47.664062 50.390625 47.667969 46.59375 47.652344 42.800781 C 47.648438 42.640625 47.488281 42.421875 47.339844 42.332031 C 46.394531 41.78125 45.429688 41.253906 44.46875 40.722656 C 44.253906 40.601562 44.035156 40.488281 43.757812 40.339844 C 43.757812 41.246094 43.761719 42.074219 43.757812 42.902344 C 43.753906 43.363281 43.519531 43.648438 43.140625 43.660156 C 42.75 43.671875 42.492188 43.375 42.488281 42.894531 C 42.488281 41.933594 42.476562 40.972656 42.496094 40.015625 C 42.5 39.726562 42.417969 39.5625 42.152344 39.421875 C 41.144531 38.886719 40.15625 38.320312 39.160156 37.769531 C 38.992188 37.675781 38.820312 37.589844 38.609375 37.476562 Z M 48.964844 54.328125 C 49.117188 54.25 49.226562 54.199219 49.332031 54.136719 C 51.921875 52.570312 54.515625 51.003906 57.105469 49.4375 C 57.332031 49.300781 57.394531 49.148438 57.394531 48.898438 C 57.386719 45.257812 57.382812 41.617188 57.386719 37.976562 L 57.386719 37.511719 C 57.203125 37.613281 57.066406 37.683594 56.9375 37.757812 C 54.394531 39.265625 51.855469 40.78125 49.304688 42.277344 C 49.019531 42.445312 48.933594 42.628906 48.933594 42.945312 C 48.945312 46.585938 48.941406 50.226562 48.941406 53.867188 C 48.941406 54.003906 48.953125 54.136719 48.964844 54.328125 Z M 77.546875 37.5 C 77.417969 37.5625 77.367188 37.582031 77.320312 37.613281 C 74.65625 39.191406 71.992188 40.769531 69.324219 42.347656 C 69.097656 42.480469 69.074219 42.644531 69.074219 42.867188 C 69.078125 46.5625 69.078125 50.257812 69.078125 53.953125 C 69.078125 54.0625 69.085938 54.167969 69.09375 54.328125 C 69.238281 54.253906 69.351562 54.203125 69.457031 54.140625 C 72.058594 52.570312 74.660156 50.996094 77.261719 49.421875 C 77.488281 49.289062 77.554688 49.136719 77.554688 48.882812 C 77.546875 46.230469 77.546875 43.578125 77.546875 40.929688 Z M 57.410156 35.246094 C 57.429688 35.152344 57.441406 35.121094 57.441406 35.09375 C 57.441406 31.289062 57.445312 27.480469 57.429688 23.671875 C 57.429688 23.523438 57.273438 23.3125 57.136719 23.238281 C 56.152344 22.71875 55.15625 22.230469 54.160156 21.730469 C 54.082031 21.691406 53.992188 21.667969 53.867188 21.621094 C 53.867188 21.820312 53.867188 21.972656 53.867188 22.128906 C 53.863281 22.734375 53.871094 23.339844 53.84375 23.945312 C 53.828125 24.292969 53.601562 24.476562 53.257812 24.492188 C 52.914062 24.507812 52.695312 24.335938 52.613281 24.003906 C 52.585938 23.882812 52.585938 23.753906 52.585938 23.628906 C 52.582031 22.851562 52.574219 22.074219 52.585938 21.300781 C 52.589844 21.042969 52.523438 20.890625 52.277344 20.773438 C 51.304688 20.296875 50.34375 19.800781 49.375 19.3125 C 49.273438 19.261719 49.160156 19.230469 49.042969 19.1875 C 49.027344 19.265625 49.015625 19.292969 49.015625 19.320312 C 49.015625 23.085938 49.015625 26.851562 49.011719 30.617188 C 49.007812 30.898438 49.140625 31.007812 49.359375 31.121094 C 51.921875 32.4375 54.484375 33.757812 57.046875 35.082031 C 57.152344 35.140625 57.265625 35.183594 57.410156 35.246094 Z M 64.59375 39.253906 C 65.816406 39.933594 66.972656 40.574219 68.121094 41.230469 C 68.359375 41.367188 68.535156 41.34375 68.765625 41.207031 C 71.328125 39.679688 73.894531 38.15625 76.460938 36.640625 C 76.585938 36.566406 76.699219 36.484375 76.855469 36.378906 C 75.753906 35.808594 74.714844 35.277344 73.683594 34.726562 C 73.4375 34.597656 73.246094 34.589844 72.992188 34.726562 C 71.472656 35.558594 69.945312 36.367188 68.421875 37.1875 C 67.171875 37.859375 65.921875 38.535156 64.59375 39.253906 Z M 56.722656 36.402344 C 55.554688 35.792969 54.46875 35.21875 53.367188 34.667969 C 53.253906 34.609375 53.042969 34.648438 52.917969 34.714844 C 51.402344 35.515625 49.890625 36.332031 48.378906 37.140625 C 47.09375 37.832031 45.804688 38.527344 44.480469 39.238281 C 44.609375 39.320312 44.695312 39.386719 44.789062 39.441406 C 45.832031 40.023438 46.882812 40.589844 47.921875 41.1875 C 48.195312 41.347656 48.394531 41.355469 48.675781 41.183594 C 50.226562 40.242188 51.792969 39.328125 53.355469 38.402344 C 54.453125 37.75 55.550781 37.097656 56.722656 36.402344 Z M 39.367188 36.375 C 39.4375 36.433594 39.472656 36.472656 39.519531 36.5 C 40.648438 37.132812 41.777344 37.769531 42.917969 38.382812 C 43.042969 38.449219 43.269531 38.425781 43.402344 38.355469 C 46.113281 36.914062 48.816406 35.464844 51.515625 34.003906 C 51.589844 33.964844 51.652344 33.902344 51.746094 33.828125 C 50.660156 33.269531 49.617188 32.71875 48.5625 32.195312 C 48.433594 32.132812 48.210938 32.15625 48.066406 32.222656 C 46.753906 32.835938 45.449219 33.464844 44.140625 34.089844 C 42.558594 34.84375 40.976562 35.601562 39.367188 36.375 Z M 71.949219 33.84375 C 70.835938 33.269531 69.789062 32.71875 68.730469 32.195312 C 68.601562 32.128906 68.378906 32.160156 68.238281 32.226562 C 65.898438 33.332031 63.5625 34.445312 61.230469 35.566406 C 60.671875 35.832031 60.117188 36.105469 59.492188 36.410156 C 60.695312 37.082031 61.828125 37.703125 62.945312 38.347656 C 63.1875 38.484375 63.367188 38.46875 63.597656 38.34375 C 65.214844 37.464844 66.839844 36.59375 68.464844 35.722656 C 69.601562 35.109375 70.742188 34.496094 71.949219 33.84375 Z M 66.988281 18.117188 C 65.652344 17.519531 64.425781 16.964844 63.183594 16.433594 C 63.039062 16.371094 62.800781 16.410156 62.648438 16.488281 C 60.109375 17.761719 57.574219 19.046875 55.046875 20.335938 C 54.933594 20.394531 54.828125 20.464844 54.671875 20.554688 C 55.757812 21.101562 56.78125 21.628906 57.820312 22.125 C 57.972656 22.199219 58.226562 22.195312 58.386719 22.121094 C 60.339844 21.226562 62.285156 20.308594 64.234375 19.398438 C 65.121094 18.984375 66.007812 18.574219 66.988281 18.117188 Z M 61.460938 15.644531 C 60.394531 15.167969 59.402344 14.734375 58.421875 14.28125 C 58.183594 14.167969 58 14.164062 57.757812 14.28125 C 55.925781 15.179688 54.089844 16.058594 52.253906 16.945312 C 51.472656 17.320312 50.699219 17.699219 49.808594 18.132812 C 49.933594 18.179688 49.976562 18.191406 50.011719 18.207031 C 51.015625 18.714844 52.015625 19.230469 53.03125 19.714844 C 53.160156 19.777344 53.382812 19.738281 53.523438 19.667969 C 54.996094 18.9375 56.460938 18.191406 57.929688 17.445312 C 59.078125 16.859375 60.226562 16.273438 61.460938 15.644531 Z M 61.460938 15.644531 " fill-opacity="1" fill-rule="nonzero"/></g><g fill="#38b6ff" fill-opacity="1"><g transform="translate(27.387081, 128.091803)"><g><path d="M 0.796875 -16.75 L 8.140625 -16.75 L 8.140625 -13.109375 L 5.296875 -13.109375 L 5.296875 -10.1875 L 8.140625 -10.1875 L 8.140625 -6.546875 L 5.296875 -6.546875 L 5.296875 0 L 0.796875 0 Z M 0.796875 -16.75 "/></g></g></g><g fill="#38b6ff" fill-opacity="1"><g transform="translate(36.176662, 128.091803)"><g><path d="M 0.734375 -12.859375 L 4.71875 -12.859375 L 4.71875 0 L 0.734375 0 Z M 0.734375 -16.75 L 4.71875 -16.75 L 4.71875 -14.015625 L 0.734375 -14.015625 Z M 0.734375 -16.75 "/></g></g></g><g fill="#38b6ff" fill-opacity="1"><g transform="translate(41.626203, 128.091803)"><g><path d="M 0.734375 -12.859375 L 4.71875 -12.859375 L 4.71875 -11.46875 C 4.882812 -11.757812 5.054688 -11.992188 5.234375 -12.171875 C 5.410156 -12.359375 5.609375 -12.503906 5.828125 -12.609375 C 6.046875 -12.722656 6.296875 -12.800781 6.578125 -12.84375 C 6.859375 -12.882812 7.191406 -12.90625 7.578125 -12.90625 C 8.378906 -12.90625 8.988281 -12.820312 9.40625 -12.65625 C 9.832031 -12.5 10.132812 -12.234375 10.3125 -11.859375 C 10.363281 -11.734375 10.40625 -11.625 10.4375 -11.53125 C 10.476562 -11.445312 10.503906 -11.296875 10.515625 -11.078125 C 10.535156 -10.867188 10.550781 -10.566406 10.5625 -10.171875 C 10.570312 -9.785156 10.578125 -9.234375 10.578125 -8.515625 L 10.578125 0 L 6.578125 0 L 6.578125 -8.484375 C 6.578125 -9.453125 6.257812 -9.9375 5.625 -9.9375 C 5.019531 -9.9375 4.71875 -9.4375 4.71875 -8.4375 L 4.71875 0 L 0.734375 0 Z M 0.734375 -12.859375 "/></g></g></g><g fill="#38b6ff" fill-opacity="1"><g transform="translate(52.927088, 128.091803)"><g><path d="M 3.34375 0 C 2.851562 -0.582031 2.398438 -1.238281 1.984375 -1.96875 C 1.578125 -2.695312 1.234375 -3.460938 0.953125 -4.265625 C 0.765625 -4.765625 0.625 -5.363281 0.53125 -6.0625 C 0.445312 -6.757812 0.40625 -7.46875 0.40625 -8.1875 L 0.40625 -12.859375 L 4.390625 -12.859375 L 4.390625 -8.203125 C 4.390625 -7.585938 4.398438 -7.046875 4.421875 -6.578125 C 4.453125 -6.109375 4.503906 -5.6875 4.578125 -5.3125 C 4.660156 -4.9375 4.753906 -4.585938 4.859375 -4.265625 C 4.960938 -3.953125 5.109375 -3.632812 5.296875 -3.3125 C 5.460938 -3.632812 5.601562 -3.953125 5.71875 -4.265625 C 5.84375 -4.585938 5.941406 -4.9375 6.015625 -5.3125 C 6.085938 -5.6875 6.132812 -6.109375 6.15625 -6.578125 C 6.1875 -7.046875 6.203125 -7.585938 6.203125 -8.203125 L 6.203125 -12.859375 L 10.1875 -12.859375 L 10.1875 -8.1875 C 10.1875 -7.25 10.113281 -6.398438 9.96875 -5.640625 C 9.832031 -4.890625 9.613281 -4.15625 9.3125 -3.4375 C 9.007812 -2.71875 8.695312 -2.085938 8.375 -1.546875 C 8.050781 -1.015625 7.675781 -0.5 7.25 0 Z M 3.34375 0 "/></g></g></g><g fill="#38b6ff" fill-opacity="1"><g transform="translate(63.499702, 128.091803)"><g><path d="M 3.71875 0 C 2.96875 0 2.410156 -0.0351562 2.046875 -0.109375 C 1.679688 -0.179688 1.394531 -0.328125 1.1875 -0.546875 C 1.0625 -0.671875 0.960938 -0.796875 0.890625 -0.921875 C 0.828125 -1.046875 0.773438 -1.207031 0.734375 -1.40625 C 0.691406 -1.601562 0.664062 -1.863281 0.65625 -2.1875 C 0.65625 -2.519531 0.65625 -2.945312 0.65625 -3.46875 L 0.65625 -10.265625 C 0.65625 -11.203125 0.851562 -11.875 1.25 -12.28125 C 1.457031 -12.476562 1.769531 -12.625 2.1875 -12.71875 C 2.601562 -12.8125 3.1875 -12.859375 3.9375 -12.859375 L 7.078125 -12.859375 C 8.421875 -12.859375 9.332031 -12.664062 9.8125 -12.28125 C 9.945312 -12.175781 10.050781 -12.070312 10.125 -11.96875 C 10.207031 -11.875 10.269531 -11.742188 10.3125 -11.578125 C 10.351562 -11.421875 10.378906 -11.222656 10.390625 -10.984375 C 10.410156 -10.753906 10.421875 -10.457031 10.421875 -10.09375 L 10.421875 -4.828125 L 4.640625 -4.828125 L 4.640625 -4.140625 C 4.640625 -3.703125 4.734375 -3.40625 4.921875 -3.25 C 5.117188 -3.101562 5.492188 -3.03125 6.046875 -3.03125 L 10.421875 -3.03125 L 10.421875 0 Z M 6.421875 -7.25 L 6.421875 -8.40625 C 6.421875 -8.84375 6.34375 -9.1875 6.1875 -9.4375 C 6.03125 -9.6875 5.8125 -9.8125 5.53125 -9.8125 C 5.238281 -9.8125 5.015625 -9.6875 4.859375 -9.4375 C 4.710938 -9.1875 4.640625 -8.84375 4.640625 -8.40625 L 4.640625 -7.25 Z M 6.421875 -7.25 "/></g></g></g><g fill="#38b6ff" fill-opacity="1"><g transform="translate(74.499238, 128.091803)"><g><path d="M 0.734375 -12.859375 L 4.71875 -12.859375 L 4.71875 -11.46875 C 4.882812 -11.757812 5.054688 -11.992188 5.234375 -12.171875 C 5.410156 -12.359375 5.609375 -12.503906 5.828125 -12.609375 C 6.046875 -12.722656 6.296875 -12.800781 6.578125 -12.84375 C 6.859375 -12.882812 7.191406 -12.90625 7.578125 -12.90625 C 8.378906 -12.90625 8.988281 -12.820312 9.40625 -12.65625 C 9.832031 -12.5 10.132812 -12.234375 10.3125 -11.859375 C 10.363281 -11.734375 10.40625 -11.625 10.4375 -11.53125 C 10.476562 -11.445312 10.503906 -11.296875 10.515625 -11.078125 C 10.535156 -10.867188 10.550781 -10.566406 10.5625 -10.171875 C 10.570312 -9.785156 10.578125 -9.234375 10.578125 -8.515625 L 10.578125 0 L 6.578125 0 L 6.578125 -8.484375 C 6.578125 -9.453125 6.257812 -9.9375 5.625 -9.9375 C 5.019531 -9.9375 4.71875 -9.4375 4.71875 -8.4375 L 4.71875 0 L 0.734375 0 Z M 0.734375 -12.859375 "/></g></g></g><g fill="#38b6ff" fill-opacity="1"><g transform="translate(85.800123, 128.091803)"><g><path d="M 3.6875 0 C 3.164062 0 2.726562 -0.046875 2.375 -0.140625 C 2.03125 -0.242188 1.753906 -0.410156 1.546875 -0.640625 C 1.335938 -0.878906 1.1875 -1.191406 1.09375 -1.578125 C 1 -1.960938 0.953125 -2.445312 0.953125 -3.03125 L 0.953125 -9.34375 L -0.125 -9.34375 L -0.125 -12.375 L 0.953125 -12.375 L 0.953125 -15.421875 L 4.953125 -15.421875 L 4.953125 -12.375 L 6.859375 -12.375 L 6.859375 -9.34375 L 4.953125 -9.34375 L 4.953125 -3.9375 C 4.953125 -3.601562 5.015625 -3.367188 5.140625 -3.234375 C 5.265625 -3.097656 5.484375 -3.03125 5.796875 -3.03125 L 6.859375 -3.03125 L 6.859375 0 Z M 3.6875 0 "/></g></g></g><g fill="#38b6ff" fill-opacity="1"><g transform="translate(92.882013, 128.091803)"><g><path d="M 4.5 0 C 3.519531 0 2.785156 -0.046875 2.296875 -0.140625 C 1.816406 -0.242188 1.453125 -0.414062 1.203125 -0.65625 C 1.066406 -0.769531 0.960938 -0.882812 0.890625 -1 C 0.828125 -1.125 0.773438 -1.28125 0.734375 -1.46875 C 0.691406 -1.65625 0.664062 -1.910156 0.65625 -2.234375 C 0.65625 -2.566406 0.65625 -3.007812 0.65625 -3.5625 L 0.65625 -9.265625 C 0.65625 -9.816406 0.65625 -10.253906 0.65625 -10.578125 C 0.664062 -10.910156 0.691406 -11.175781 0.734375 -11.375 C 0.773438 -11.570312 0.828125 -11.726562 0.890625 -11.84375 C 0.960938 -11.96875 1.066406 -12.085938 1.203125 -12.203125 C 1.453125 -12.429688 1.816406 -12.597656 2.296875 -12.703125 C 2.785156 -12.804688 3.519531 -12.859375 4.5 -12.859375 L 6.703125 -12.859375 C 7.660156 -12.859375 8.378906 -12.804688 8.859375 -12.703125 C 9.347656 -12.597656 9.71875 -12.429688 9.96875 -12.203125 C 10.082031 -12.085938 10.175781 -11.96875 10.25 -11.84375 C 10.332031 -11.726562 10.394531 -11.570312 10.4375 -11.375 C 10.476562 -11.175781 10.5 -10.910156 10.5 -10.578125 C 10.507812 -10.253906 10.515625 -9.816406 10.515625 -9.265625 L 10.515625 -3.5625 C 10.515625 -3.007812 10.507812 -2.566406 10.5 -2.234375 C 10.5 -1.910156 10.476562 -1.65625 10.4375 -1.46875 C 10.394531 -1.28125 10.332031 -1.125 10.25 -1 C 10.175781 -0.882812 10.082031 -0.769531 9.96875 -0.65625 C 9.71875 -0.414062 9.347656 -0.242188 8.859375 -0.140625 C 8.378906 -0.046875 7.660156 0 6.703125 0 Z M 6.53125 -8.40625 C 6.53125 -8.894531 6.453125 -9.25 6.296875 -9.46875 C 6.148438 -9.6875 5.898438 -9.796875 5.546875 -9.796875 C 4.941406 -9.796875 4.640625 -9.332031 4.640625 -8.40625 L 4.640625 -4.375 C 4.640625 -3.882812 4.710938 -3.53125 4.859375 -3.3125 C 5.015625 -3.09375 5.269531 -2.984375 5.625 -2.984375 C 6.226562 -2.984375 6.53125 -3.445312 6.53125 -4.375 Z M 6.53125 -8.40625 "/></g></g></g><g fill="#38b6ff" fill-opacity="1"><g transform="translate(104.057334, 128.091803)"><g><path d="M 0.734375 -12.859375 L 4.71875 -12.859375 L 4.71875 -11.203125 C 5.101562 -11.835938 5.484375 -12.285156 5.859375 -12.546875 C 6.234375 -12.804688 6.71875 -12.9375 7.3125 -12.9375 C 7.4375 -12.9375 7.546875 -12.925781 7.640625 -12.90625 C 7.734375 -12.882812 7.859375 -12.84375 8.015625 -12.78125 L 7.703125 -8.4375 C 7.398438 -8.582031 7.132812 -8.707031 6.90625 -8.8125 C 6.6875 -8.914062 6.46875 -9.007812 6.25 -9.09375 C 6.03125 -9.175781 5.800781 -9.257812 5.5625 -9.34375 C 5.320312 -9.425781 5.039062 -9.515625 4.71875 -9.609375 L 4.71875 0 L 0.734375 0 Z M 0.734375 -12.859375 "/></g></g></g><g fill="#38b6ff" fill-opacity="1"><g transform="translate(112.018179, 128.091803)"><g><path d="M 3.359375 0 C 2.085938 -1.070312 1.226562 -2.476562 0.78125 -4.21875 C 0.726562 -4.382812 0.679688 -4.625 0.640625 -4.9375 C 0.597656 -5.257812 0.5625 -5.609375 0.53125 -5.984375 C 0.5 -6.359375 0.46875 -6.738281 0.4375 -7.125 C 0.414062 -7.507812 0.40625 -7.863281 0.40625 -8.1875 L 0.40625 -12.859375 L 4.390625 -12.859375 L 4.390625 -7.984375 C 4.410156 -7.109375 4.425781 -6.421875 4.4375 -5.921875 C 4.457031 -5.421875 4.492188 -5.007812 4.546875 -4.6875 C 4.609375 -4.375 4.695312 -4.09375 4.8125 -3.84375 C 4.9375 -3.601562 5.097656 -3.3125 5.296875 -2.96875 C 5.492188 -3.3125 5.648438 -3.601562 5.765625 -3.84375 C 5.890625 -4.09375 5.976562 -4.375 6.03125 -4.6875 C 6.09375 -5.007812 6.128906 -5.421875 6.140625 -5.921875 C 6.160156 -6.421875 6.179688 -7.109375 6.203125 -7.984375 L 6.203125 -12.859375 L 10.1875 -12.859375 L 10.1875 -8.1875 C 10.1875 -8 10.175781 -7.707031 10.15625 -7.3125 C 10.132812 -6.925781 10.101562 -6.445312 10.0625 -5.875 C 9.882812 -3.382812 8.945312 -1.425781 7.25 0 L 7.25 4.125 L 3.359375 4.125 Z M 3.359375 0 "/></g></g></g></svg>